<svg width="80" height="42" viewBox="0 0 80 42" fill="none" xmlns="http://www.w3.org/2000/svg">
<g clip-path="url(#clip0_504_987)">
<path d="M64.4648 16.3802C67.4144 16.1405 78.6788 19.36 79.5984 23.4499C80.4868 27.4056 71.3084 33.605 72.2472 36.0914C72.8256 37.6242 75.5584 36.8725 77.4348 36.8531C80.798 36.8187 78.1112 42.1319 69.826 41.9337C65.532 41.8301 61.01 41.3527 60.8192 37.5917C60.5652 32.5373 70.7332 27.9764 69.4528 25.8384C68.9304 24.9657 66.7912 25.052 64.4124 24.9846C57.8428 24.7986 60.4576 16.7058 64.4648 16.3802Z" fill="#007DC4"/>
<path d="M50.2168 14.3416C47.3764 16.5807 45.8856 24.1206 45.5712 28.1324C45.18 33.1306 46.5988 40.0783 53.3308 41.6661C59.1536 43.0395 61.2472 39.8126 58.8376 38.5971C55.452 36.8882 54.5488 34.2809 54.6624 31.0501C54.7032 29.8933 55.0228 28.9814 55.9788 29.0402C58.3428 29.1832 60.8548 28.8736 60.7396 25.5786C60.6676 23.5139 57.2984 25.0675 56.4648 23.8038C55.6724 22.6022 59.1404 18.4308 57.9724 16.342C57.1516 14.8572 51.9048 13.0103 50.2168 14.3416Z" fill="#007DC4"/>
<path d="M17.6369 28.313C19.6425 27.836 21.3039 27.3043 22.6836 26.7493C22.7097 26.7385 22.7332 26.7262 22.7595 26.715C23.6255 22.2173 26.9587 18.1081 31.714 16.4835C32.973 10.9837 30.7945 5.0177 25.2938 2.06959C21.9556 0.196005 17.7072 -0.511215 13.0988 0.387315C2.1715 2.51777 -2.80629 13.2991 1.59839 26.481C4.95976 36.5398 12.9414 43.4955 16.6007 41.6883C21.1358 39.4494 7.35672 30.7592 17.6369 28.313Z" fill="#007DC4"/>
<path d="M34.8939 33.9646C35.6736 34.0877 37.295 34.2466 38.5376 34.1325C41.3944 34.0063 43.576 32.7743 44.9484 31.018C44.6232 28.0481 44.932 24.8711 45.5216 22.0401C44.5376 20.3174 42.876 18.7915 40.4508 17.7866C37.1054 16.506 31.9907 16.5443 28.4052 19.2653C24.5971 22.1559 22.5675 26.3888 23.1224 30.5884C23.7821 36.5687 27.6674 39.1846 29.2946 40.1597C31.6401 41.5673 34.932 42.2259 38.1322 41.8927C41.116 41.51 42.552 40.3693 43.118 39.7275C44.0248 38.6989 43.8956 37.6761 43.5572 37.2119C43.0372 36.5013 42.3016 36.7823 41.0044 37.0226C37.7995 37.6141 36.0026 36.6162 35.2781 36.0324C33.9338 34.9484 33.961 33.8158 34.8939 33.9646Z" fill="#007DC4"/>
</g>
<defs>
<clipPath id="clip0_504_987">
<rect width="80" height="42" fill="white"/>
</clipPath>
</defs>
</svg>
